<svg width="71" height="68" viewBox="0 0 71 68" fill="none" xmlns="http://www.w3.org/2000/svg">
<g id="Layer_1" clip-path="url(#clip0_3350_2421)">
<g id="Group">
<path id="Vector" d="M51.7949 19.931V28.9721C51.7949 29.2205 51.634 29.4441 51.3997 29.515L49.5148 30.1005C49.1546 30.214 48.7909 29.9408 48.7909 29.5576V19.931C48.7909 19.6188 48.5391 19.3633 48.2314 19.3633H39.0517C38.744 19.3633 38.4922 19.6188 38.4922 19.931V23.8945C38.4922 24.2067 38.744 24.4622 39.0517 24.4622H46.4549C46.7626 24.4622 47.0144 24.7177 47.0144 25.0299V28.3476C47.0144 28.6599 46.7626 28.9154 46.4549 28.9154H39.0517C38.744 28.9154 38.4922 29.1708 38.4922 29.4831V34.6353C38.4922 35.0185 38.8559 35.2917 39.2161 35.1781L47.0144 32.7617L48.7909 32.2082L56.4879 29.8202L56.5298 29.8095L56.8201 29.7173L63.4364 27.6664C63.6707 27.5918 63.8316 27.3718 63.8316 27.1235V19.931C63.8316 19.6188 63.5798 19.3633 63.2721 19.3633H52.3544C52.0466 19.3633 51.7949 19.6188 51.7949 19.931ZM56.8201 27.0667V21.7371C56.8201 21.4249 57.0719 21.1694 57.3796 21.1694H57.8132C58.2434 21.1694 58.4042 21.2155 58.5826 21.3823C58.7784 21.5668 58.8064 21.8861 58.8064 22.1771V26.797C58.8064 27.0454 58.649 27.2689 58.4147 27.3399L57.544 27.6096C57.1838 27.7231 56.8201 27.4499 56.8201 27.0667Z" fill="#8474A3"/>
<path id="Vector_2" d="M29.6027 38.1663L35.0475 36.4773C35.2818 36.4028 35.4427 36.1828 35.4427 35.9344V19.9457C35.4427 19.6334 35.1909 19.3779 34.8832 19.3779H29.4418C29.1341 19.3779 28.8823 19.6334 28.8823 19.9457V36.0834C28.8823 36.3318 28.7214 36.5553 28.4871 36.6263L23.2311 38.2585C22.9968 38.3331 22.8359 38.553 22.8359 38.8014V39.5005C22.8359 39.8837 23.1996 40.1569 23.5598 40.0433L28.5291 38.4998L29.6062 38.1663H29.6027Z" fill="#8474A3"/>
<path id="Vector_3" d="M59.799 42.6863L53.931 44.503L53.3995 44.6663L52.4168 44.9714C52.0601 45.0814 51.8153 45.4185 51.8153 45.7946V55.9712C51.8153 56.4467 51.4342 56.8334 50.9656 56.8334H49.6122C49.1436 56.8334 48.7624 56.4467 48.7624 55.9712V47.2672C48.7624 46.6888 48.2099 46.2736 47.6644 46.4404L45.7235 47.0436L44.7758 47.3381L42.7581 47.9626L39.0477 49.1123C38.691 49.2223 38.4462 49.5594 38.4462 49.9391V55.9535C38.4462 56.4289 38.0651 56.8157 37.5965 56.8157H36.3305C35.8619 56.8157 35.4808 56.4289 35.4808 55.9535V51.4364C35.4808 50.8297 34.9038 50.3968 34.3337 50.5742L27.2243 52.7777L23.4895 53.9345C23.1328 54.0445 22.888 54.3816 22.888 54.7612V55.9535C22.888 56.4289 22.5068 56.8157 22.0382 56.8157H20.7128C20.2442 56.8157 19.8631 56.4289 19.8631 55.9535V47.3594C19.8631 46.7811 19.3105 46.3659 18.765 46.5327L0.601487 52.1745C0.244791 52.2845 0 52.6216 0 53.0013V57.827C0 58.3024 0.381175 58.6892 0.849776 58.6892H12.4529C12.9215 58.6892 13.3027 59.076 13.3027 59.5515V67.1378C13.3027 67.6132 13.6838 68 14.1524 68H19.0133C19.4819 68 19.8631 67.6132 19.8631 67.1378V59.5515C19.8631 59.076 20.2442 58.6892 20.7128 58.6892H62.8275C63.2961 58.6892 63.6772 58.3024 63.6772 57.827V42.6508C63.6772 42.0724 63.1247 41.6573 62.5792 41.824L59.799 42.6863ZM6.73526 55.957V52.8203C6.73526 52.4406 6.97655 52.1071 7.33325 51.9971L12.2011 50.4713C12.7466 50.301 13.3027 50.7161 13.3027 51.2945V55.957C13.3027 56.4325 12.9215 56.8193 12.4529 56.8193H7.58504C7.11644 56.8193 6.73526 56.4325 6.73526 55.957Z" fill="#A69BBD"/>
<path id="Vector_4" d="M1.90253 46.7564L8.46294 44.7232L13.2224 43.2471L19.3841 41.3346C19.6184 41.2601 19.7793 41.0401 19.7793 40.7917V19.9453C19.7793 19.6331 19.5275 19.3776 19.2198 19.3776H13.7819C13.4742 19.3776 13.2224 19.6331 13.2224 19.9453V40.9407C13.2224 41.1891 13.0615 41.4127 12.8272 41.4836L8.46294 42.8391L7.38586 43.1726C7.02566 43.2826 6.66197 43.0094 6.66197 42.6297V19.9347C6.66197 19.6224 6.41019 19.3669 6.10245 19.3669H0.661086C0.353348 19.3669 0.101562 19.6224 0.101562 19.9347V46.5577C0.101562 46.9409 0.46875 47.2142 0.828943 47.1006L1.90253 46.76V46.7564Z" fill="#8474A3"/>
<path id="Vector_5" d="M11.3438 24.0049V19.9457C11.3403 19.6334 11.0885 19.3779 10.7808 19.3779H8.89937C8.59163 19.3779 8.33984 19.6334 8.33984 19.9457V24.3917C8.33984 24.7501 8.66507 25.0198 9.01127 24.9488L10.8927 24.562C11.1549 24.5088 11.3403 24.2746 11.3403 24.0049H11.3438Z" fill="#8474A3"/>
<path id="Vector_6" d="M51.0664 36.4449L49.192 37.0268C48.9577 37.1013 48.7969 37.3213 48.7969 37.5697V41.5722C48.7969 41.9554 49.1606 42.2287 49.5208 42.1151L50.7202 41.7425L51.3952 41.5332C51.6295 41.4587 51.7903 41.2387 51.7903 40.9903V36.9878C51.7903 36.6046 51.4266 36.3314 51.0664 36.4449Z" fill="#A69BBD"/>
<path id="Vector_7" d="M38.4489 41.1357C38.4489 40.7525 38.0852 40.4793 37.7251 40.5928L37.253 40.7383L35.8541 41.1748C35.6198 41.2493 35.459 41.4693 35.459 41.7177V45.7202C35.459 46.1034 35.8227 46.3766 36.1829 46.2631L38.0573 45.6811C38.2916 45.6066 38.4524 45.3866 38.4524 45.1382V41.1357H38.4489Z" fill="#A69BBD"/>
<path id="Vector_8" d="M44.5174 43.6727L44.7237 43.6089C44.958 43.5344 45.1189 43.3144 45.1189 43.066V39.0635C45.1189 38.6803 44.7552 38.407 44.395 38.5206L42.6674 39.0564L42.5241 39.1025C42.2898 39.177 42.1289 39.397 42.1289 39.6454V43.6479C42.1289 44.0311 42.4926 44.3043 42.8528 44.1908L44.0523 43.8182L44.5209 43.6727H44.5174Z" fill="#A69BBD"/>
</g>
<path id="Vector_9" d="M70.4406 55.006H69.1747C69.0068 55.006 68.8495 55.0805 68.7445 55.2118L66.44 58.0363C66.1113 58.4408 65.4434 58.2137 65.4434 57.6956V16.819C65.4434 16.6203 65.5483 16.4322 65.7161 16.3329L70.1573 13.6433C70.5315 13.4162 71.0036 13.6894 71.0036 14.1294V54.4596C71.0036 54.7612 70.7518 55.006 70.4441 55.006H70.4406Z" fill="#6E5C95"/>
<path id="Vector_10" d="M65.7897 17.6104H1.55297C0.899027 17.6104 0.703194 16.4572 1.29419 16.0988L5.88578 13.3099C5.96621 13.2602 6.05364 13.2354 6.14456 13.2354H70.3813C71.0353 13.2354 71.2311 14.3886 70.6401 14.7469L66.0485 17.5359C65.9681 17.5856 65.8807 17.6104 65.7897 17.6104Z" fill="#422B72"/>
<g id="Group_2">
<path id="Vector_11" d="M54.4935 17.5642H51.4651C51.4651 9.57337 45.0586 3.07284 37.1833 3.07284C29.308 3.07284 22.9015 9.57337 22.9015 17.5642H19.873C19.873 7.88082 27.6399 0 37.1833 0C46.7267 0 54.4935 7.88082 54.4935 17.5642Z" fill="#422B72"/>
<path id="Vector_12" d="M51.5521 17.5642H48.5237C48.5237 9.57337 42.1172 3.07284 34.2419 3.07284C26.3666 3.07284 19.9601 9.57337 19.9601 17.5642H16.9316C16.9316 7.88082 24.695 0 34.2419 0C43.7888 0 51.5521 7.88082 51.5521 17.5642Z" fill="#A69BBD"/>
</g>
</g>
<defs>
<clipPath id="clip0_3350_2421">
<rect width="71" height="68" fill="white"/>
</clipPath>
</defs>
</svg>
