<svg width="51" height="51" viewBox="0 0 51 51" fill="none" xmlns="http://www.w3.org/2000/svg">
<g id="Group">
<path id="Vector" d="M25.9046 11.5371C18.6251 11.5371 12.7029 17.5664 12.6992 24.9784C12.6992 27.5171 13.3964 29.9916 14.7166 32.1298L15.0318 32.6398L13.6968 37.6L18.6919 36.2664L19.174 36.5573C21.1987 37.7813 23.5238 38.4311 25.8898 38.4311H25.8935C33.1692 38.4311 39.0877 32.4018 39.0914 24.9898C39.0914 21.3971 37.7231 18.0198 35.2311 15.4811C32.7391 12.9387 29.4238 11.5409 25.9009 11.5409L25.9046 11.5371ZM33.6661 30.7547C33.3361 31.6991 31.7489 32.5604 30.9887 32.6776C30.3064 32.7833 29.4386 32.8249 28.4893 32.5189C27.9145 32.3338 27.1728 32.0844 26.2272 31.6689C22.2482 29.9198 19.6486 25.836 19.4484 25.5678C19.2481 25.2996 17.8278 23.3767 17.8278 21.3896C17.8278 19.4024 18.8513 18.424 19.2148 18.0198C19.5782 17.6156 20.0083 17.5136 20.2716 17.5136C20.5349 17.5136 20.8019 17.5136 21.0318 17.5287C21.2766 17.54 21.6029 17.4342 21.9256 18.2238C22.2556 19.0322 23.0492 21.0231 23.1493 21.2233C23.2494 21.4273 23.3162 21.6616 23.1827 21.9298C23.0492 22.198 22.9861 22.368 22.7859 22.6022C22.5893 22.8364 22.3706 23.1273 22.1926 23.3087C21.9923 23.5089 21.7883 23.728 22.0183 24.1322C22.2482 24.5364 23.0455 25.8587 24.2247 26.9316C25.7414 28.3067 27.0171 28.7336 27.4139 28.9376C27.8107 29.1416 28.0406 29.1076 28.2742 28.8356C28.5041 28.5673 29.2643 27.6569 29.5313 27.2527C29.7946 26.8484 30.0616 26.9164 30.4251 27.0487C30.7885 27.1847 32.7391 28.1593 33.1358 28.3633C33.5326 28.5673 33.7959 28.6656 33.8961 28.8356C33.9962 29.0056 33.9962 29.814 33.6661 30.7584V30.7547Z" fill="#A79BBE"/>
<path id="Vector_2" d="M25.0938 0C11.2691 0 0.0625 11.4164 0.0625 25.5C0.0625 39.5836 11.2691 51 25.0938 51C38.9184 51 50.125 39.5836 50.125 25.5C50.125 11.4164 38.9184 0 25.0938 0ZM25.9022 41.1589H25.8948C23.2359 41.1589 20.6252 40.4789 18.3075 39.1907L9.88958 41.4384L12.1405 33.0593C10.7499 30.6076 10.0194 27.8233 10.0194 24.9749C10.0194 16.0593 17.1468 8.806 25.8985 8.806C30.1445 8.806 34.1347 10.4909 37.131 13.5471C40.1273 16.6033 41.7775 20.6682 41.7775 24.9862C41.7775 33.9018 34.6501 41.1589 25.8985 41.1589H25.9022Z" fill="#A79BBE"/>
</g>
</svg>
