<svg width="51" height="51" viewBox="0 0 51 51" fill="none" xmlns="http://www.w3.org/2000/svg">
<g id="Group">
<path id="Vector" d="M25.1562 0C11.3316 0 0.125 11.4164 0.125 25.5C0.125 39.5836 11.3316 51 25.1562 51C38.9809 51 50.1875 39.5836 50.1875 25.5C50.1875 11.4164 38.9809 0 25.1562 0ZM37.3604 16.218C37.2195 18.5602 32.9549 36.04 32.9549 36.04C32.9549 36.04 32.699 37.0638 31.7868 37.0978C31.453 37.1091 31.0488 37.0411 30.5667 36.618C29.6025 35.7756 27.3738 34.1624 25.3009 32.7042C24.6742 33.2407 23.4245 34.3438 22.1302 35.6584C20.2983 37.5247 20.532 35.6584 20.532 35.6584L21.0956 29.5649L21.1105 29.5724C21.1364 29.512 21.1772 29.4591 21.1772 29.4591C21.1772 29.4591 31.9722 19.6822 32.2577 18.6584C32.28 18.5791 32.1947 18.5413 32.0834 18.5753C31.3677 18.8436 18.9374 26.8411 17.5653 27.7213C17.4837 27.7742 17.2612 27.7402 17.2612 27.7402L11.2315 25.738C11.2315 25.738 10.512 25.4396 10.742 24.7633C10.7902 24.6236 10.8866 24.5064 11.1721 24.3024C12.5071 23.3542 35.903 14.7862 35.903 14.7862C35.903 14.7862 36.5631 14.5596 36.9525 14.7107C37.1305 14.7787 37.2454 14.858 37.3418 15.1413C37.3752 15.2433 37.3975 15.4662 37.3937 15.6853C37.3937 15.844 37.3715 15.9876 37.3604 16.218Z" fill="#A79BBE"/>
</g>
</svg>
