<svg width="68" height="70" viewBox="0 0 68 70" fill="none" xmlns="http://www.w3.org/2000/svg">
<g id="Layer_1" clip-path="url(#clip0_2421_2084)">
<path id="Vector" d="M33.9996 69.9999C33.7923 69.9999 33.5924 69.9852 33.3852 69.9483C33.1483 69.9114 30.9719 69.513 27.8258 68.1778C25.9974 67.4032 24.1838 66.4516 22.4442 65.3598C20.2826 63.9951 18.2247 62.409 16.3223 60.6312C11.5254 56.146 7.72047 50.4657 5.00373 43.7601C3.41217 39.8429 2.19075 35.52 1.35426 30.9242C0.451147 25.9226 -0.0078125 20.4636 -0.0078125 14.7022C-0.0078125 13.2637 0.843483 11.958 2.16114 11.3826L27.2929 0.309758C29.1361 -0.501708 31.2828 0.331889 32.0971 2.16138C32.9114 3.99824 32.0749 6.13756 30.2391 6.94902L7.32073 17.0407C7.53541 26.0701 8.98631 34.0299 11.6512 40.7208C13.9164 46.4232 17.0625 51.2329 21.0081 55.0173C24.5095 58.3738 28.0109 60.3066 30.3427 61.332C31.9121 62.0254 33.1779 62.4164 33.9182 62.6082C34.6658 62.3721 35.9391 61.9221 37.5306 61.1476C39.8772 60.0115 43.4231 57.9238 46.9541 54.4419C50.9219 50.5321 54.0902 45.6855 56.3628 40.0347C59.0203 33.4397 60.4712 25.716 60.6933 17.0407L52.4838 13.426L34.3919 45.3387C33.8293 46.3273 32.8374 46.9986 31.7122 47.1535C30.587 47.3084 29.447 46.9248 28.6401 46.1207L19.1352 36.6487C17.7139 35.2323 17.7139 32.9307 19.1352 31.5143C20.5565 30.0979 22.8661 30.0979 24.2874 31.5143L30.4019 37.6077L47.7536 6.98591C48.6789 5.3556 50.685 4.69167 52.4024 5.4515L65.838 11.3678C67.1557 11.9506 68.007 13.249 68.007 14.6875C68.007 25.3914 66.3192 34.9372 62.9955 43.0593C60.2861 49.6764 56.4886 55.364 51.7213 59.9599C43.4897 67.8901 35.1618 69.8229 34.8065 69.904C34.54 69.963 34.2735 69.9925 34.007 69.9925L33.9996 69.9999Z" fill="#563D72"/>
</g>
<defs>
<clipPath id="clip0_2421_2084">
<rect width="68" height="70" fill="white"/>
</clipPath>
</defs>
</svg>
