<svg width="115" height="109" viewBox="0 0 115 109" fill="none" xmlns="http://www.w3.org/2000/svg">
<g id="Layer_1" clip-path="url(#clip0_3352_2436)">
<g id="Group">
<path id="Vector" d="M113.988 26.1934V83.6453C113.988 86.8096 111.44 89.3875 108.274 89.4785L106.212 91.9654C105.093 93.315 103.441 94.0884 101.684 94.0884C101.177 94.0884 100.681 94.0176 100.199 93.8963C99.2776 94.422 98.2138 94.7253 97.0842 94.7253H39.916V101.706C39.916 105.168 37.0895 107.989 33.6197 107.989H26.5788C23.109 107.989 20.2825 105.168 20.2825 101.706V94.7253H7.30998C3.84017 94.7253 1.01367 91.9047 1.01367 88.4422V81.5678C1.01367 79.6824 1.83427 77.9739 3.1918 76.8113C1.95077 75.7347 1.16057 74.1475 1.16057 72.3783V34.4578C1.16057 33.088 1.63672 31.8294 2.43199 30.8285C2.11793 28.3669 3.23739 25.9204 5.34966 24.6618L12.0005 20.6888C12.9022 20.1479 13.9305 19.8648 14.979 19.8648H27.7236C32.1913 8.82534 43.0312 1.01074 55.6796 1.01074C56.3938 1.01074 57.103 1.04107 57.8121 1.09162C58.5162 1.04107 59.2254 1.01074 59.9396 1.01074C72.5879 1.01074 83.4279 8.82534 87.8956 19.8648H108.026C110.705 19.8648 113 21.6542 113.739 24.3181C113.856 24.7376 113.922 25.1622 113.952 25.5868C113.952 25.5969 113.952 25.6121 113.952 25.6272C113.957 25.7334 113.967 25.8395 113.967 25.9406C113.972 26.0266 113.982 26.1074 113.982 26.1934H113.988Z" fill="white"/>
<path id="Vector_2" d="M33.6191 109H26.5782C22.5461 109 19.2688 105.73 19.2688 101.706V95.7364H7.30939C3.27732 95.7364 0 92.466 0 88.4424V81.568C0 79.7989 0.633176 78.1157 1.76783 76.8065C0.729419 75.5731 0.146897 74.0062 0.146897 72.3785V34.458C0.146897 33.0427 0.572391 31.6931 1.38286 30.5406C1.18531 27.7909 2.50738 25.1776 4.82734 23.7976L11.4782 19.8246C12.5318 19.1928 13.7425 18.8592 14.9784 18.8592H27.0493C31.983 7.37989 43.1472 0 55.679 0C56.3527 0 57.0517 0.0252736 57.8115 0.0758208C58.5663 0.0252736 59.2602 0 59.939 0C72.4708 0 83.635 7.37989 88.5687 18.8541H108.025C111.165 18.8541 113.85 20.9417 114.716 24.0504C114.828 24.4497 114.904 24.8591 114.944 25.2989L114.965 25.3393L114.975 25.6729C114.975 25.7487 114.985 25.8246 114.985 25.9004V25.9408C114.995 26.0268 115 26.1076 115 26.1936V83.6455C115 87.2192 112.3 90.1257 108.775 90.4593L106.992 92.6075C105.68 94.1897 103.745 95.0995 101.683 95.0995C101.247 95.0995 100.797 95.054 100.346 94.963C99.3327 95.4685 98.2132 95.7364 97.0837 95.7364H40.9285V101.706C40.9285 105.73 37.6512 109 33.6191 109ZM14.9784 20.876C14.1122 20.876 13.2612 21.1085 12.5217 21.5533L5.87081 25.5263C4.12324 26.5676 3.17095 28.5946 3.43941 30.6973L3.49513 31.1169L3.23173 31.4505C2.54284 32.3148 2.17813 33.3561 2.17813 34.453V72.3735C2.17813 73.7787 2.79104 75.1182 3.85984 76.0432L4.74629 76.8115L3.85478 77.5748C2.6948 78.5655 2.03123 80.0213 2.03123 81.563V88.4374C2.03123 91.3439 4.40184 93.7095 7.31445 93.7095H21.3V101.701C21.3 104.607 23.6707 106.973 26.5833 106.973H33.6242C36.5368 106.973 38.9074 104.607 38.9074 101.701V93.7095H97.0887C98.0005 93.7095 98.9021 93.4668 99.7025 93.0119L100.057 92.8097L100.452 92.9108C100.878 93.017 101.293 93.0726 101.688 93.0726C103.142 93.0726 104.51 92.4306 105.437 91.3135L107.792 88.4728L108.253 88.4576C110.862 88.3818 112.984 86.2184 112.984 83.6354V26.1936C112.984 26.1632 112.984 26.1329 112.979 26.1026L112.969 25.9408C112.969 25.9408 112.969 25.8953 112.969 25.8701L112.954 25.6578C112.928 25.2685 112.867 24.9198 112.776 24.5862C112.158 22.3671 110.254 20.876 108.04 20.876H87.2264L86.9731 20.2442C82.4953 9.17432 71.8883 2.02189 59.9542 2.02189C59.3058 2.02189 58.6321 2.04716 57.8976 2.09771H57.8267H57.7558C57.0163 2.04716 56.3426 2.02189 55.6942 2.02189C43.7601 2.02189 33.1582 9.17432 28.6804 20.2442L28.4271 20.876H14.9987H14.9784Z" fill="#CDC5DA"/>
</g>
<g id="Group_2">
<g id="Group_3">
<path id="Vector_3" d="M81.1028 34.4577V47.3371C81.1028 47.6909 80.8698 48.0094 80.5304 48.1105L77.8002 48.9445C77.2784 49.1063 76.7516 48.717 76.7516 48.1711V34.4577C76.7516 34.0129 76.3869 33.6489 75.9412 33.6489H62.6444C62.1987 33.6489 61.834 34.0129 61.834 34.4577V40.1038C61.834 40.5486 62.1987 40.9126 62.6444 40.9126H73.3679C73.8137 40.9126 74.1784 41.2765 74.1784 41.7213V46.4475C74.1784 46.8923 73.8137 47.2562 73.3679 47.2562H62.6444C62.1987 47.2562 61.834 47.6202 61.834 48.065V55.4044C61.834 55.9504 62.3608 56.3396 62.8825 56.1778L74.1784 52.7356L76.7516 51.947L87.9006 48.5452L87.9614 48.53L88.3818 48.3986L97.9656 45.477C98.3049 45.3708 98.5379 45.0574 98.5379 44.7036V34.4577C98.5379 34.0129 98.1732 33.6489 97.7275 33.6489H81.9133C81.4675 33.6489 81.1028 34.0129 81.1028 34.4577ZM88.3818 44.6227V37.0305C88.3818 36.5857 88.7465 36.2218 89.1923 36.2218H89.8204C90.4434 36.2218 90.6764 36.2875 90.9348 36.5251C91.2184 36.7879 91.259 37.2428 91.259 37.6573V44.2386C91.259 44.5924 91.031 44.9108 90.6916 45.0119L89.4303 45.3961C88.9086 45.5578 88.3818 45.1686 88.3818 44.6227Z" fill="#8474A3"/>
<path id="Vector_4" d="M48.9559 60.4337L56.8427 58.0276C57.1821 57.9215 57.4151 57.6081 57.4151 57.2543V34.4777C57.4151 34.0329 57.0504 33.6689 56.6046 33.6689H48.7229C48.2771 33.6689 47.9124 34.0329 47.9124 34.4777V57.4666C47.9124 57.8204 47.6794 58.1388 47.34 58.2399L39.7267 60.5651C39.3873 60.6713 39.1543 60.9847 39.1543 61.3385V62.3343C39.1543 62.8802 39.6811 63.2694 40.2028 63.1076L47.4008 60.9088L48.9609 60.4337H48.9559Z" fill="#8474A3"/>
<path id="Vector_5" d="M92.6966 66.8737L84.1969 69.4617L83.4269 69.6943L82.0035 70.129C81.4869 70.2857 81.1323 70.7659 81.1323 71.3017V85.7986C81.1323 86.4759 80.5802 87.0269 79.9014 87.0269H77.9411C77.2623 87.0269 76.7102 86.4759 76.7102 85.7986V73.3994C76.7102 72.5755 75.9099 71.984 75.1197 72.2216L72.3084 73.0809L70.9356 73.5005L68.0129 74.3901L62.6385 76.0278C62.1218 76.1845 61.7672 76.6647 61.7672 77.2056V85.7733C61.7672 86.4507 61.2151 87.0016 60.5363 87.0016H58.7027C58.0239 87.0016 57.4718 86.4507 57.4718 85.7733V79.3387C57.4718 78.4743 56.636 77.8576 55.8103 78.1104L45.5123 81.2494L40.1025 82.8972C39.5858 83.0539 39.2312 83.5341 39.2312 84.0749V85.7733C39.2312 86.4507 38.6791 87.0016 38.0003 87.0016H36.0805C35.4018 87.0016 34.8497 86.4507 34.8497 85.7733V73.5308C34.8497 72.7069 34.0493 72.1155 33.2591 72.353L6.94938 80.385C6.4327 80.5417 6.07812 81.0219 6.07812 81.5627V88.4372C6.07812 89.1145 6.63025 89.6655 7.30902 89.6655H24.116C24.7948 89.6655 25.3469 90.2164 25.3469 90.8938V101.701C25.3469 102.378 25.8991 102.929 26.5778 102.929H33.6188C34.2975 102.929 34.8497 102.378 34.8497 101.701V90.8938C34.8497 90.2164 35.4018 89.6655 36.0805 89.6655H97.0833C97.762 89.6655 98.3142 89.1145 98.3142 88.4372V66.8181C98.3142 65.9942 97.5138 65.4028 96.7236 65.6404L92.6966 66.8687V66.8737ZM15.8341 85.7784V81.31C15.8341 80.7692 16.1836 80.294 16.7003 80.1373L23.7513 77.9638C24.5415 77.7212 25.3469 78.3126 25.3469 79.1365V85.7784C25.3469 86.4557 24.7948 87.0067 24.116 87.0067H17.065C16.3862 87.0067 15.8341 86.4557 15.8341 85.7784Z" fill="#A69BBD"/>
<path id="Vector_6" d="M8.83409 72.6712L18.3368 69.7748L25.2308 67.6721L34.1561 64.9476C34.4955 64.8414 34.7285 64.528 34.7285 64.1742V34.4777C34.7285 34.0329 34.3638 33.669 33.918 33.669H26.0413C25.5955 33.669 25.2308 34.0329 25.2308 34.4777V64.3865C25.2308 64.7403 24.9978 65.0588 24.6584 65.1599L18.3368 67.0908L16.7767 67.5659C16.2549 67.7226 15.7281 67.3334 15.7281 66.7926V34.4626C15.7281 34.0177 15.3634 33.6538 14.9176 33.6538H7.04093C6.59518 33.6538 6.23047 34.0177 6.23047 34.4626V72.3881C6.23047 72.934 6.76234 73.3233 7.28407 73.1615L8.83916 72.6763L8.83409 72.6712Z" fill="#8474A3"/>
<path id="Vector_7" d="M22.5094 40.2554V34.4728C22.5043 34.028 22.1396 33.6641 21.6939 33.6641H18.9687C18.5229 33.6641 18.1582 34.028 18.1582 34.4728V40.8064C18.1582 41.3169 18.6293 41.7011 19.1308 41.6L21.856 41.049C22.2359 40.9732 22.5043 40.6396 22.5043 40.2554H22.5094Z" fill="#8474A3"/>
<path id="Vector_8" d="M80.0492 57.9823L77.3341 58.8113C76.9947 58.9174 76.7617 59.2308 76.7617 59.5846V65.2864C76.7617 65.8323 77.2885 66.2215 77.8103 66.0597L79.5477 65.529L80.5253 65.2308C80.8647 65.1246 81.0977 64.8112 81.0977 64.4574V58.7557C81.0977 58.2097 80.5709 57.8205 80.0492 57.9823Z" fill="#A69BBD"/>
<path id="Vector_9" d="M61.7723 64.6648C61.7723 64.1189 61.2455 63.7297 60.7238 63.8915L60.04 64.0987L58.0138 64.7204C57.6744 64.8266 57.4414 65.14 57.4414 65.4938V71.1955C57.4414 71.7414 57.9682 72.1307 58.4899 71.9689L61.205 71.1399C61.5444 71.0338 61.7774 70.7204 61.7774 70.3666V64.6648H61.7723Z" fill="#A69BBD"/>
<path id="Vector_10" d="M70.5612 68.2788L70.8601 68.1878C71.1995 68.0816 71.4325 67.7682 71.4325 67.4144V61.7127C71.4325 61.1668 70.9057 60.7776 70.3839 60.9393L67.8816 61.7026L67.674 61.7683C67.3346 61.8744 67.1016 62.1878 67.1016 62.5417V68.2434C67.1016 68.7893 67.6284 69.1785 68.1501 69.0168L69.8875 68.486L70.5663 68.2788H70.5612Z" fill="#A69BBD"/>
</g>
<path id="Vector_11" d="M108.112 84.4236H106.278C106.035 84.4236 105.807 84.5297 105.655 84.7168L102.317 88.7403C101.841 89.3166 100.873 88.9931 100.873 88.2551V30.0247C100.873 29.7416 101.025 29.4737 101.268 29.3322L107.701 25.5007C108.243 25.1772 108.927 25.5664 108.927 26.1932V83.6452C108.927 84.0748 108.562 84.4236 108.117 84.4236H108.112Z" fill="#6E5C95"/>
<path id="Vector_12" d="M101.374 31.1519H8.32725C7.38002 31.1519 7.09636 29.5091 7.95241 28.9986L14.6033 25.0256C14.7198 24.9548 14.8464 24.9194 14.9781 24.9194H108.025C108.972 24.9194 109.256 26.5622 108.399 27.0727L101.749 31.0458C101.632 31.1165 101.505 31.1519 101.374 31.1519Z" fill="#422B72"/>
<g id="Group_4">
<path id="Vector_13" d="M85.0187 31.0863H80.632C80.632 19.7031 71.3522 10.4428 59.9449 10.4428C48.5376 10.4428 39.2577 19.7031 39.2577 31.0863H34.8711C34.8711 17.292 46.1214 6.06543 59.9449 6.06543C73.7684 6.06543 85.0187 17.292 85.0187 31.0863Z" fill="#422B72"/>
<path id="Vector_14" d="M80.753 31.0863H76.3664C76.3664 19.7031 67.0865 10.4428 55.6792 10.4428C44.2719 10.4428 34.9921 19.7031 34.9921 31.0863H30.6055C30.6055 17.292 41.8557 6.06543 55.6792 6.06543C69.5028 6.06543 80.753 17.292 80.753 31.0863Z" fill="#A69BBD"/>
</g>
</g>
</g>
<defs>
<clipPath id="clip0_3352_2436">
<rect width="115" height="109" fill="white"/>
</clipPath>
</defs>
</svg>
