<svg width="70" height="70" viewBox="0 0 70 70" fill="none" xmlns="http://www.w3.org/2000/svg">
<g id="Layer_1" clip-path="url(#clip0_2421_2090)">
<path id="Vector" d="M34.9961 13.9829C32.1614 13.9829 29.4049 14.5371 26.8189 15.6313C24.3181 16.69 22.066 18.2034 20.1407 20.136C18.2083 22.0686 16.6951 24.3138 15.6365 26.8148C14.5424 29.4082 13.9883 32.1579 13.9883 34.9929C13.9883 37.8278 14.5424 40.5846 15.6365 43.1709C16.6951 45.6719 18.2083 47.9242 20.1407 49.8497C22.0731 51.7823 24.3181 53.2957 26.8189 54.3544C29.412 55.4486 32.1614 56.0028 34.9961 56.0028C37.8308 56.0028 40.5873 55.4486 43.1733 54.3544C45.6741 53.2957 47.9262 51.7823 49.8515 49.8497C51.7839 47.9171 53.2971 45.6719 54.3557 43.1709C55.4498 40.5775 56.0039 37.8278 56.0039 34.9929C56.0039 32.1579 55.4498 29.4011 54.3557 26.8148C53.2971 24.3138 51.7839 22.0615 49.8515 20.136C47.9191 18.2034 45.6741 16.69 43.1733 15.6313C40.5802 14.5371 37.8308 13.9829 34.9961 13.9829ZM34.9961 53.9068C32.4385 53.9068 29.9662 53.4094 27.6359 52.4218C25.3838 51.4697 23.3661 50.1055 21.6255 48.3719C19.885 46.6311 18.528 44.6132 17.576 42.3609C16.5885 40.0304 16.0912 37.5578 16.0912 35C16.0912 32.4421 16.5885 29.9695 17.576 27.639C18.528 25.3867 19.8921 23.3688 21.6255 21.6281C23.359 19.8873 25.3838 18.5302 27.6359 17.5781C29.9662 16.5905 32.4385 16.0931 34.9961 16.0931C37.5537 16.0931 40.026 16.5905 42.3563 17.5781C44.6084 18.5302 46.6261 19.8944 48.3666 21.6281C50.1072 23.3688 51.4642 25.3867 52.4162 27.639C53.4037 29.9695 53.901 32.4421 53.901 35C53.901 37.5578 53.4037 40.0304 52.4162 42.3609C51.4642 44.6132 50.1001 46.6311 48.3666 48.3719C46.6332 50.1126 44.6084 51.4697 42.3563 52.4218C40.026 53.4094 37.5537 53.9068 34.9961 53.9068Z" fill="#563D72"/>
<path id="Vector_2" d="M31.5303 36.4138C31.175 36.8685 30.5143 36.9396 30.0739 36.563L26.4364 33.4438C26.0101 33.0815 25.3778 33.1312 25.0084 33.5504L21.2857 37.8846C20.9233 38.3109 20.9731 38.9432 21.3922 39.3127L26.2943 43.519L31.3669 47.8744C31.8073 48.251 32.4752 48.1799 32.8304 47.7181L48.7443 26.8005C49.0853 26.3529 48.993 25.7063 48.5383 25.3724L43.9133 21.9903C43.4728 21.6706 42.8618 21.7559 42.5279 22.1893L31.5232 36.4138H31.5303ZM32.5462 38.5453L42.94 25.1095C43.2739 24.6761 43.892 24.5908 44.3325 24.9105L45.5544 25.8058C46.0091 26.1397 46.1015 26.7863 45.7605 27.2339L32.5036 44.6558C32.1484 45.1176 31.4805 45.1887 31.0401 44.8121L27.6655 41.9132L24.3619 39.0782C23.9356 38.7159 23.893 38.0764 24.2553 37.6501L25.2286 36.5133C25.591 36.087 26.2304 36.0443 26.6566 36.4067L29.4984 38.8438L30.3722 39.5969C30.8127 39.9735 31.4805 39.9095 31.8287 39.4477L32.532 38.5311L32.5462 38.5453Z" fill="#705B88"/>
<g id="Group">
<path id="Vector_3" d="M69.5661 36.5204C70.1416 35.6038 70.1416 34.4243 69.5661 33.5078L66.838 29.195C66.6533 28.9036 66.5822 28.5484 66.6391 28.2073L67.5129 23.184C67.6976 22.1182 67.243 21.024 66.362 20.3988L62.1988 17.4501C61.9146 17.2512 61.7157 16.9528 61.6446 16.6188L60.5222 11.6381C60.2877 10.5865 59.4494 9.74814 58.3908 9.50656L53.4177 8.38395C53.0767 8.30579 52.7854 8.10685 52.5794 7.82264L49.6382 3.65192C49.013 2.76377 47.926 2.31615 46.8532 2.49378L41.8233 3.3535C41.4823 3.41034 41.1341 3.33929 40.8429 3.15455L36.5447 0.440385C35.6211 -0.142238 34.4205 -0.142238 33.4969 0.440385L29.1987 3.15455C28.9074 3.33929 28.5522 3.41034 28.2112 3.3535L23.1812 2.47956C22.1156 2.29483 21.0215 2.74246 20.3963 3.6306L17.448 7.80133C17.249 8.08553 16.9506 8.28448 16.6167 8.35553L11.6365 9.47814C10.578 9.71972 9.74675 10.551 9.5052 11.6097L8.3827 16.5904C8.30455 16.9315 8.10563 17.2228 7.82145 17.4288L3.65115 20.3703C2.76309 20.9956 2.31551 22.0827 2.49313 23.1485L3.35276 28.1789C3.4096 28.52 3.33855 28.8681 3.15384 29.1594L0.425735 33.4723C-0.149724 34.3888 -0.149724 35.5683 0.425735 36.4848L3.15384 40.7977C3.33855 41.089 3.4096 41.4442 3.35276 41.7853L2.47892 46.8157C2.2942 47.8815 2.74889 48.9757 3.62984 49.601L7.80014 52.5496C8.08432 52.7485 8.28324 53.047 8.35428 53.3809L9.47678 58.3616C9.71834 59.4203 10.5496 60.2516 11.6081 60.4932L16.5812 61.6158C16.9222 61.6939 17.2206 61.8929 17.4195 62.1771L20.3608 66.3478C20.986 67.236 22.073 67.6836 23.1457 67.506L28.1757 66.6462C28.5167 66.5894 28.8648 66.6604 29.1561 66.8452L33.4685 69.5736C33.9231 69.8649 34.4489 70.007 34.9746 70.007C35.5003 70.007 36.0261 69.8649 36.4807 69.5736L40.7931 66.8452C41.0844 66.6604 41.4325 66.5894 41.7807 66.6462L46.8106 67.5202C47.8763 67.7049 48.9703 67.2573 49.5955 66.3691L52.5439 62.1984C52.7428 61.9142 53.0412 61.7153 53.3751 61.6442L58.3553 60.5216C59.4139 60.28 60.2451 59.4487 60.4866 58.39L61.6091 53.4093C61.6873 53.0683 61.8862 52.777 62.1704 52.5709L66.3407 49.6294C67.2287 49.0041 67.6763 47.917 67.4987 46.8513L66.6391 41.8208C66.5822 41.4798 66.6533 41.1316 66.838 40.8403L69.5661 36.5275V36.5204ZM6.19454 46.1052L6.97602 41.5934C7.0968 40.9043 6.95471 40.1937 6.57818 39.604L4.12715 35.7317C3.84297 35.277 3.84297 34.6872 4.12715 34.2396L6.57107 30.3673C6.94761 29.7776 7.08259 29.0742 6.96892 28.385L6.19454 23.8661C6.10218 23.3332 6.32952 22.7932 6.77 22.4877L10.4714 19.8801L10.514 19.8588C11.1961 19.5177 11.6223 18.8498 11.6578 18.0967L12.6525 13.6986C12.7732 13.1728 13.1853 12.7607 13.711 12.6399L18.1797 11.631C18.8617 11.4747 19.4585 11.0768 19.8635 10.5084L22.5063 6.77108C22.8189 6.33056 23.3589 6.10319 23.8917 6.20267L28.403 6.98423C29.0921 7.10502 29.8026 6.96292 30.3922 6.58635L34.3707 4.07112C34.7615 3.82244 35.2659 3.82244 35.6566 4.07112L39.6351 6.58635C40.2248 6.96292 40.9281 7.09792 41.6172 6.98423L46.1357 6.20977C46.6685 6.1174 47.2084 6.34477 47.5139 6.78529L50.1568 10.5297C50.5617 11.1052 51.1585 11.5031 51.8405 11.6594L56.3092 12.6684C56.8349 12.7891 57.247 13.2012 57.3678 13.727L58.3766 18.1962C58.5329 18.8783 58.9308 19.4751 59.4991 19.8801L63.236 22.5232C63.6765 22.8358 63.8968 23.3758 63.8044 23.9087L63.0229 28.4205C62.9021 29.1097 63.0442 29.8202 63.4208 30.4099L65.8718 34.2822C66.156 34.737 66.156 35.3267 65.8718 35.7743L63.4279 39.6466C63.0513 40.2364 62.9163 40.9398 63.03 41.629L63.8044 46.1479C63.8968 46.6807 63.6694 47.2207 63.2289 47.5263L59.4849 50.1694C58.9094 50.5744 58.5116 51.1712 58.3553 51.8533L57.3465 56.3224C57.2257 56.8482 56.8136 57.2603 56.2879 57.3811L51.8192 58.39C51.1372 58.5464 50.5404 58.9442 50.1355 59.5127L47.4926 63.25C47.18 63.6905 46.6401 63.9107 46.1073 63.8184L41.5959 63.0368C40.9068 62.916 40.1964 63.0581 39.6067 63.4347L35.7348 65.886C35.2801 66.1702 34.6904 66.1702 34.2428 65.886L30.3709 63.4418C29.9162 63.1576 29.3976 63.0084 28.8648 63.0084C28.7085 63.0084 28.5451 63.0226 28.3888 63.051L23.8704 63.8255C23.3375 63.9179 22.7976 63.6905 22.4921 63.25L19.8493 59.5056C19.4443 58.93 18.8475 58.5321 18.1655 58.3758L13.6968 57.3669C13.1711 57.2461 12.759 56.834 12.6383 56.3082L11.6436 51.9101C11.6152 51.157 11.1818 50.4891 10.5069 50.1481L6.77 47.512C6.32952 47.1994 6.10928 46.6594 6.20164 46.1265L6.19454 46.1052Z" fill="#3C235E"/>
<path id="Vector_4" d="M15.5649 54.4256C18.087 56.9479 21.0283 58.9303 24.2963 60.3158C27.6851 61.751 31.2871 62.4757 34.9956 62.4757C38.7041 62.4757 42.306 61.751 45.6949 60.3158C48.97 58.9303 51.9041 56.9479 54.4262 54.4256C56.9483 51.9033 58.9304 48.9688 60.3158 45.6934C61.7509 42.3042 62.4755 38.7019 62.4755 34.993C62.4755 31.2841 61.7509 27.6889 60.3158 24.2926C58.9304 21.0172 56.9483 18.0827 54.4262 15.5604C51.9041 13.0381 48.9629 11.0557 45.6949 9.67022C42.306 8.23498 38.7041 7.51025 34.9956 7.51025C31.2871 7.51025 27.6851 8.23498 24.2963 9.67022C21.0212 11.0557 18.087 13.0381 15.5649 15.5604C13.0429 18.0827 11.0607 21.0243 9.67537 24.2926C8.24028 27.6818 7.51562 31.2841 7.51562 34.993C7.51562 38.7019 8.24028 42.2971 9.67537 45.6934C11.0607 48.9688 13.0429 51.9033 15.5649 54.4256ZM11.1034 33.2949C11.9204 21.4577 21.4616 11.9226 33.2905 11.1055C33.866 11.0628 34.4414 11.0486 35.0098 11.0486C41.1054 11.0486 46.8458 13.301 51.3287 17.4859C56.1668 21.9977 58.9375 28.3852 58.9375 35.0001C58.9375 48.2086 48.1956 58.9516 34.9885 58.9516C28.3742 58.9516 21.9945 56.1806 17.476 51.342C12.9008 46.4394 10.6345 40.0306 11.0963 33.302L11.1034 33.2949Z" fill="#3C235E"/>
</g>
</g>
<defs>
<clipPath id="clip0_2421_2090">
<rect width="70" height="70" fill="white"/>
</clipPath>
</defs>
</svg>
