<svg width="72" height="70" viewBox="0 0 72 70" fill="none" xmlns="http://www.w3.org/2000/svg">
<g id="Layer_1" clip-path="url(#clip0_2421_2071)">
<g id="Group">
<path id="Vector" d="M27.2217 26.652C30.403 24.8873 30.9981 24.4951 31.0936 24.4443C31.0936 24.4443 31.1891 24.3862 31.2479 24.3571C31.6593 24.1247 31.8062 23.6019 31.5711 23.1952L22.5491 7.75583C22.314 7.34915 21.785 7.21116 21.3736 7.45082C21.3736 7.45082 15.9956 9.89817 12.616 12.9628C12.2046 13.3404 11.8226 13.7326 11.4626 14.132C8.29602 17.7195 7.40704 22.2584 7.92867 26.5721C8.66337 32.6868 17.1932 46.514 17.1932 46.514C17.1932 46.514 25.0397 60.7261 30.0283 64.408C33.9442 67.2983 38.9695 68.8524 44.296 67.1966C48.6748 65.8386 53.5091 62.4544 53.5091 62.4544C53.9205 62.2148 54.0601 61.6992 53.825 61.2925L44.803 45.8459C44.5679 45.4392 44.0462 45.3012 43.6348 45.5409C43.576 45.5699 43.5393 45.6207 43.4952 45.6571C43.4952 45.6571 42.7458 45.9984 39.6087 47.8357C35.6119 50.1741 35.5091 52.3673 35.5091 52.3673C33.665 51.2417 27.6846 40.5154 27.6846 40.5154C27.6846 40.5154 21.2707 30.0289 21.2119 27.8865C21.2119 27.8865 23.2764 28.8234 27.2291 26.6375L27.2217 26.652Z" fill="#563D72"/>
<path id="Vector_2" d="M39.8945 69.0413C36.2504 69.0413 32.5917 67.7632 29.3149 65.3449C24.1794 61.5541 16.4725 47.6615 16.1492 47.0733C15.826 46.5504 7.50187 33.0065 6.74514 26.7102C6.128 21.5831 7.48718 16.8409 10.5655 13.3623C10.9476 12.9266 11.3664 12.5054 11.8072 12.106C15.2823 8.94694 20.6455 6.49233 20.8733 6.39065C21.0864 6.25994 21.439 6.16553 21.799 6.16553C22.5264 6.16553 23.2023 6.55042 23.5696 7.17497L32.5917 22.6143C32.8635 23.0864 32.937 23.631 32.79 24.1539C32.6504 24.6768 32.3051 25.1125 31.8349 25.3739L31.6806 25.4611C30.9606 25.9041 29.6676 26.6448 27.8015 27.6761C25.6415 28.8671 23.959 29.2084 22.8423 29.2665C23.8488 31.6049 26.3468 36.1002 28.6904 39.9273C30.8872 43.8634 33.5688 48.2498 35.119 50.2832C35.7582 49.2955 36.919 48.0682 39.0055 46.8482C41.4007 45.4466 42.4292 44.8946 42.8113 44.7058C42.87 44.655 42.9509 44.5969 43.039 44.5461C43.9794 44.0087 45.2945 44.3573 45.8309 45.2868L54.8529 60.7262C55.4113 61.692 55.0733 62.9266 54.1035 63.4858C53.9933 63.5729 49.1517 66.9353 44.648 68.3296C43.0904 68.8162 41.4962 69.0559 39.9019 69.0559L39.8945 69.0413ZM21.6668 8.59835C20.506 9.15754 16.1933 11.2926 13.4088 13.8198C13.0341 14.1612 12.6741 14.5243 12.3509 14.8946C8.97861 18.7073 8.72147 23.2752 9.09616 26.427C9.79412 32.2149 18.1109 45.7588 18.1917 45.8968C18.2945 46.0856 26.0015 59.9782 30.7255 63.464C34.8251 66.4923 39.5272 67.4437 43.928 66.0784C47.6235 64.931 51.7525 62.2222 52.6415 61.6194L43.95 46.7392C43.7737 46.8264 42.87 47.2839 40.2031 48.8453C36.9264 50.7625 36.6766 52.4546 36.6766 52.4691C36.6251 52.8612 36.3753 53.2316 36.008 53.3986C35.648 53.5729 35.2145 53.5729 34.8766 53.3623C32.9149 52.1713 28.0733 43.6601 26.6333 41.0747C25.1125 38.5984 20.0798 30.1888 20.0137 27.9157C19.999 27.509 20.2047 27.1314 20.5427 26.9063C20.8806 26.6811 21.3141 26.6521 21.6888 26.8191C21.6888 26.8191 23.4521 27.3783 26.6333 25.6136C28.4406 24.6114 29.697 23.8997 30.3655 23.4858L21.6594 8.58383L21.6668 8.59835Z" fill="#1F1E1F"/>
</g>
<path id="Vector_3" d="M50.5906 65.4611C50.1865 65.4611 49.7971 65.2577 49.5767 64.8873L39.4085 47.9738C39.0779 47.4218 39.2616 46.7029 39.8199 46.3688C40.3857 46.0348 41.1057 46.2236 41.4436 46.7755L51.6118 63.6891C51.9424 64.241 51.7587 64.96 51.2003 65.294C51.0093 65.403 50.8036 65.4611 50.5979 65.4611H50.5906Z" fill="#1F1E1F"/>
<path id="Vector_4" d="M27.7781 27.4944C27.374 27.4944 26.9772 27.291 26.7568 26.9207L16.596 10.0216C16.2654 9.46969 16.4491 8.75074 17.0074 8.41668C17.5658 8.08262 18.2932 8.27143 18.6311 8.82336L28.7919 25.7224C29.1225 26.2743 28.9389 26.9933 28.3805 27.3274C28.1895 27.4363 27.9838 27.4944 27.7781 27.4944Z" fill="#1F1E1F"/>
<path id="Vector_5" d="M27.8457 68.3202C27.6914 68.9593 27.0376 69.3587 26.3984 69.1917C11.3812 65.1466 1 51.777 1 36.265C1 33.4182 1.35265 30.6005 2.05061 27.8699C2.21224 27.2309 2.89551 26.8605 3.53469 27.0493C4.15184 27.2236 4.49714 27.8554 4.34286 28.4727C3.69633 31.0072 3.37306 33.6288 3.37306 36.2723C3.37306 50.7094 13.0269 63.1568 27.0008 66.9331C27.618 67.1002 28.0073 67.7102 27.8604 68.3275L27.8457 68.3202Z" fill="#1B1B1B" stroke="#1B1B1B" stroke-width="2" stroke-miterlimit="10"/>
<g id="Group_2">
<path id="Vector_6" d="M58.8984 60.2062C58.4602 59.7415 58.4894 59.0225 58.9423 58.5723C64.8808 52.6391 68.27 44.5272 68.27 36.1322C68.27 18.6013 53.9241 4.33842 36.2912 4.33842C32.9603 4.33842 29.6879 4.84677 26.547 5.84168C25.9408 6.03776 25.2834 5.73275 25.0715 5.13725C24.8451 4.51997 25.1738 3.8228 25.8093 3.61946C29.1839 2.54466 32.712 2 36.2912 2C55.2243 2 70.6221 17.3086 70.6221 36.1322C70.6221 45.1518 66.9771 53.8736 60.5858 60.2498C60.1183 60.7146 59.3513 60.6855 58.8984 60.2062Z" fill="#1B1B1B" stroke="#1B1B1B" stroke-width="2" stroke-miterlimit="10"/>
<path id="Vector_7" d="M58.2261 54.0479L59.4021 54.0914L59.2341 58.6012C59.2122 59.2839 59.7674 59.8358 60.454 59.814L64.99 59.647L65.0339 60.8162L59.2341 61.0268C58.5475 61.0486 57.9924 60.4967 58.0143 59.814L58.2261 54.0479Z" fill="#1B1B1B" stroke="#1B1B1B" stroke-width="2" stroke-miterlimit="10"/>
</g>
<g id="Group_3">
<path id="Vector_8" d="M47.4985 23.1156V26.9064C47.4985 27.7488 47.3001 28.5259 46.9034 29.2448C46.5066 29.9638 45.963 30.523 45.2723 30.9369C44.5817 31.3509 43.8103 31.5542 42.9581 31.5542C41.9956 31.5542 41.1654 31.2855 40.4748 30.7408V38.6348H38.4691V29.7387C38.4691 28.3225 38.4323 27.0952 38.3589 26.064C38.2854 25.0328 38.1311 24.0814 37.8887 23.2245L39.674 22.8687C39.9825 23.6312 40.203 24.9674 40.3499 26.8774V27.117C40.416 27.7706 40.6879 28.3225 41.1801 28.7728C41.6723 29.223 42.2601 29.4554 42.9507 29.4554C43.6413 29.4554 44.2879 29.2085 44.7874 28.7074C45.287 28.2063 45.5368 27.5963 45.5368 26.8846V23.1156H47.4911H47.4985Z" fill="#705B88"/>
<path id="Vector_9" d="M58.2396 36.5725V38.6495H54.3751C53.6331 38.664 52.9278 38.5115 52.2665 38.1992C51.6053 37.887 51.0323 37.4294 50.5767 36.8412C50.1212 36.253 49.82 35.5921 49.6731 34.8586C49.6216 34.5899 49.5996 34.3212 49.5996 34.0453C49.5996 33.3263 49.7612 32.6582 50.0919 32.0264C50.4225 31.3946 50.878 30.8717 51.4584 30.4432C50.9882 30.0584 50.6282 29.5936 50.3637 29.0344C50.0992 28.4752 49.967 27.8797 49.967 27.2479C49.967 26.4999 50.158 25.81 50.5327 25.1709C50.9074 24.5318 51.4143 24.0308 52.0535 23.6676C52.6853 23.3045 53.3833 23.1157 54.14 23.1157H56.9172V25.0692H54.14C53.5302 25.0692 53.0086 25.2798 52.5825 25.7011C52.1563 26.1223 51.9433 26.6379 51.9433 27.2406C51.9433 27.8434 52.1563 28.359 52.5825 28.7802C53.0086 29.2014 53.5302 29.412 54.14 29.412C54.3457 29.412 54.5808 29.3902 54.838 29.3394L57.4682 28.8891L57.8282 30.8209L53.8461 31.5108C53.2216 31.6197 52.7 31.9102 52.3033 32.3822C51.9065 32.8543 51.7008 33.3917 51.7008 33.9944C51.7008 34.757 51.9653 35.3888 52.487 35.8826C53.0086 36.3764 53.6331 36.6088 54.3604 36.5725H58.247H58.2396Z" fill="#705B88"/>
</g>
</g>
<defs>
<clipPath id="clip0_2421_2071">
<rect width="72" height="70" fill="white"/>
</clipPath>
</defs>
</svg>
