<svg width="24" height="24" viewBox="0 0 24 24" fill="none" xmlns="http://www.w3.org/2000/svg">
<g id="arrow_upward">
<mask id="mask0_7200_855" style="mask-type:alpha" maskUnits="userSpaceOnUse" x="0" y="0" width="24" height="24">
<rect id="Bounding box" width="24" height="24" fill="#D9D9D9"/>
</mask>
<g mask="url(#mask0_7200_855)">
<path id="arrow_upward_2" d="M11.0001 7.8248L6.10011 12.7248C5.90011 12.9248 5.66678 13.0206 5.40011 13.0123C5.13344 13.004 4.90011 12.8998 4.70011 12.6998C4.51678 12.4998 4.42094 12.2665 4.41261 11.9998C4.40428 11.7331 4.50011 11.4998 4.70011 11.2998L11.3001 4.6998C11.4001 4.5998 11.5084 4.52897 11.6251 4.4873C11.7418 4.44564 11.8668 4.4248 12.0001 4.4248C12.1334 4.4248 12.2584 4.44564 12.3751 4.4873C12.4918 4.52897 12.6001 4.5998 12.7001 4.6998L19.3001 11.2998C19.4834 11.4831 19.5751 11.7123 19.5751 11.9873C19.5751 12.2623 19.4834 12.4998 19.3001 12.6998C19.1001 12.8998 18.8626 12.9998 18.5876 12.9998C18.3126 12.9998 18.0751 12.8998 17.8751 12.6998L13.0001 7.8248V18.9998C13.0001 19.2831 12.9043 19.5206 12.7126 19.7123C12.5209 19.904 12.2834 19.9998 12.0001 19.9998C11.7168 19.9998 11.4793 19.904 11.2876 19.7123C11.0959 19.5206 11.0001 19.2831 11.0001 18.9998V7.8248Z" fill="white"/>
</g>
</g>
</svg>
