<svg width="93" height="70" viewBox="0 0 93 70" fill="none" xmlns="http://www.w3.org/2000/svg">
<g id="Layer_1" clip-path="url(#clip0_2421_2234)">
<path id="Vector" d="M89.9091 0H41.0106C40.9507 0 40.8809 0.00986193 40.841 0.00986193L40.1928 0.138067L39.5146 0.433925L23.0987 16.2722L22.9691 16.4004C22.9691 16.4004 22.9092 16.4596 22.8993 16.4694L22.7995 16.5878C22.7397 16.6568 22.6799 16.7357 22.6599 16.7751C22.62 16.8245 22.5801 16.8836 22.5402 16.9527L22.4704 17.071C22.4704 17.071 22.4205 17.1598 22.4006 17.2189C22.3807 17.2584 22.3607 17.3077 22.3408 17.3274L22.1612 17.9191C22.1413 18.0079 22.1313 18.0966 22.1114 18.284V66.9428C22.1014 68.6292 23.4877 70 25.1931 70H73.9919C74.0917 70 74.2014 70 74.2911 69.9901L74.4407 69.9704C74.5006 69.9605 74.5504 69.9507 74.5903 69.9408L74.7499 69.9112C74.7499 69.9112 74.8596 69.8817 74.8696 69.8718L75.438 69.645C75.438 69.645 75.5477 69.5858 75.5577 69.5759L75.6973 69.497C75.6973 69.497 75.7871 69.4379 75.807 69.4181L92.0135 53.7179L92.2927 53.4319C92.3526 53.3531 92.4024 53.284 92.4722 53.1854C92.5121 53.1361 92.5421 53.0769 92.562 53.0473L92.931 52.1006C92.9609 51.9921 92.9709 51.8935 92.9809 51.8343V51.7061C93.0008 51.6371 93.0008 51.5582 93.0008 51.4793V3.0572C93.0008 1.37081 91.6146 0 89.9091 0ZM62.9416 15.4635L72.2167 6.1144H82.0403L72.7054 15.4635H62.9416ZM28.2848 21.5779H40.4421V47.3077L46.0271 43.4714L49.408 46.499L52.749 43.3235L58.9823 47.1302V21.5779H70.9002V63.8856H28.2848V21.5779ZM52.2603 6.1144L42.6661 15.4635H32.7528L42.3769 6.1144H52.2603ZM86.8175 10.0394V50.1972L77.0836 59.645V19.7732L86.8175 10.0394Z" fill="#3C235E"/>
<path id="Vector_2" d="M16.2765 51.3018C22.8588 57.8106 32.104 61.0158 41.01 59.8718C41.9475 59.7534 42.6157 58.9053 42.486 57.9684C42.3664 57.0414 41.5087 56.3807 40.5612 56.5089C32.7023 57.5148 24.5343 54.6745 18.7 48.9053C11.8883 42.1696 9.25538 32.5937 11.6789 23.9941L14.0226 30.4438C14.3417 31.3215 15.3291 31.785 16.2167 31.4694C17.1043 31.1538 17.573 30.1775 17.2539 29.2998L13.4042 18.7081C13.2247 18.215 12.8258 17.8304 12.3271 17.6726C11.8285 17.5049 11.2799 17.5838 10.8411 17.8698L0.758222 24.5562C0.65849 24.6154 0.578704 24.6943 0.498919 24.7633C-0.0695529 25.3254 -0.179258 26.2229 0.289482 26.9033C0.818061 27.6824 1.88519 27.8895 2.67307 27.3668L8.21817 23.6883C5.75479 33.2939 8.75672 43.8461 16.2865 51.2919L16.2765 51.3018Z" fill="#705B88"/>
</g>
<defs>
<clipPath id="clip0_2421_2234">
<rect width="93" height="70" fill="white"/>
</clipPath>
</defs>
</svg>
