<svg width="51" height="51" viewBox="0 0 51 51" fill="none" xmlns="http://www.w3.org/2000/svg">
<g id="Group">
<path id="Vector" d="M37.3188 16.0291C37.0333 15.2811 36.6921 14.7447 36.1396 14.1818C35.587 13.6189 35.0642 13.2714 34.3262 12.9805C33.7699 12.7614 32.9356 12.5007 31.4003 12.4289C29.739 12.3534 29.2384 12.3345 25.0331 12.3345C20.8279 12.3345 20.3272 12.3496 18.6659 12.4289C17.1307 12.5007 16.2963 12.7614 15.74 12.9805C15.0058 13.2714 14.4792 13.6189 13.9267 14.1818C13.3741 14.7447 13.0329 15.2774 12.7474 16.0291C12.5323 16.5958 12.2764 17.4458 12.206 19.0098C12.1318 20.7022 12.1133 21.2122 12.1133 25.4962C12.1133 29.7802 12.1281 30.2903 12.206 31.9827C12.2764 33.5467 12.5323 34.3967 12.7474 34.9634C13.0329 35.7114 13.3741 36.2478 13.9267 36.8107C14.4792 37.3736 15.0021 37.7211 15.74 38.012C16.2963 38.2311 17.1307 38.4918 18.6659 38.5636C20.3272 38.6391 20.8242 38.658 25.0331 38.658C29.2421 38.658 29.739 38.6429 31.4003 38.5636C32.9356 38.4918 33.7699 38.2311 34.3262 38.012C35.0604 37.7211 35.587 37.3736 36.1396 36.8107C36.6921 36.2478 37.0333 35.7151 37.3188 34.9634C37.5339 34.3967 37.7898 33.5467 37.8602 31.9827C37.9344 30.2903 37.9529 29.7802 37.9529 25.4962C37.9529 21.2122 37.9381 20.7022 37.8602 19.0098C37.7898 17.4458 37.5339 16.5958 37.3188 16.0291ZM25.0331 33.7431C20.5646 33.7431 16.9415 30.0522 16.9415 25.5C16.9415 20.9478 20.5646 17.2569 25.0331 17.2569C29.5017 17.2569 33.1247 20.9478 33.1247 25.5C33.1247 30.0522 29.5017 33.7431 25.0331 33.7431ZM33.4473 18.8549C32.4016 18.8549 31.5561 17.9936 31.5561 16.9283C31.5561 15.8629 32.4016 15.0016 33.4473 15.0016C34.4931 15.0016 35.3386 15.8629 35.3386 16.9283C35.3386 17.9936 34.4931 18.8549 33.4473 18.8549Z" fill="#A79BBE"/>
<path id="Vector_2" d="M25.0312 0C11.2066 0 0 11.4164 0 25.5C0 39.5836 11.2066 51 25.0312 51C38.8559 51 50.0625 39.5836 50.0625 25.5C50.0625 11.4164 38.8559 0 25.0312 0ZM40.6953 32.1187C40.6174 33.8262 40.3541 34.9936 39.961 36.0173C39.5568 37.0713 39.0191 37.9667 38.1439 38.862C37.2687 39.7536 36.3899 40.3051 35.3515 40.7131C34.3503 41.1098 33.2044 41.3818 31.5245 41.4611C29.8447 41.5404 29.307 41.5593 25.0275 41.5593C20.7481 41.5593 20.2104 41.5404 18.5305 41.4611C16.8544 41.3818 15.7085 41.1136 14.7035 40.7131C13.6689 40.3013 12.79 39.7536 11.9112 38.862C11.036 37.9704 10.4946 37.0751 10.0941 36.0173C9.70471 34.9973 9.43771 33.83 9.35983 32.1187C9.28196 30.4073 9.26342 29.8596 9.26342 25.5C9.26342 21.1404 9.28196 20.5927 9.35983 18.8813C9.43771 17.1738 9.701 16.0064 10.0941 14.9827C10.4983 13.9287 11.036 13.0333 11.9112 12.138C12.7863 11.2464 13.6652 10.6949 14.7035 10.2869C15.7048 9.89022 16.8507 9.61822 18.5305 9.53889C20.2104 9.45956 20.7481 9.44067 25.0275 9.44067C29.307 9.44067 29.8447 9.45956 31.5245 9.53889C33.2007 9.61822 34.3466 9.88644 35.3515 10.2869C36.3862 10.6987 37.265 11.2464 38.1439 12.138C39.0191 13.0296 39.5605 13.9249 39.961 14.9827C40.3504 16.0027 40.6174 17.17 40.6953 18.8813C40.7731 20.5927 40.7917 21.1404 40.7917 25.5C40.7917 29.8596 40.7731 30.4073 40.6953 32.1187Z" fill="#A79BBE"/>
<path id="Vector_3" d="M29.4992 28.3152C31.0251 25.8004 30.2608 22.5016 27.7922 20.9472C25.3236 19.3928 22.0855 20.1714 20.5596 22.6862C19.0338 25.2011 19.7981 28.4998 22.2667 30.0542C24.7353 31.6086 27.9734 30.8301 29.4992 28.3152Z" fill="#A79BBE"/>
</g>
</svg>
