<svg width="40" height="40" viewBox="0 0 40 40" fill="none" xmlns="http://www.w3.org/2000/svg">
<g id="Group 10">
<path id="Rectangle 132" d="M40 20C40 8.95431 31.0457 0 20 0C8.95431 0 0 8.95431 0 20C0 31.0457 8.95431 40 20 40C31.0457 40 40 31.0457 40 20Z" fill="#422872"/>
<g id="favorite">
<mask id="mask0_2389_2205" style="mask-type:alpha" maskUnits="userSpaceOnUse" x="6" y="6" width="28" height="28">
<rect id="Bounding box" x="6.66797" y="6.6665" width="26.6667" height="26.6667" fill="#D9D9D9"/>
</mask>
<g mask="url(#mask0_2389_2205)">
<path id="favorite_2" d="M20.0017 29.2497C19.7425 29.2497 19.4786 29.2034 19.2101 29.1108C18.9416 29.0182 18.7054 28.8701 18.5017 28.6664L16.5851 26.9164C14.6221 25.1201 12.849 23.3377 11.2656 21.5692C9.68229 19.8007 8.89062 17.8516 8.89062 15.722C8.89062 13.9812 9.47396 12.5275 10.6406 11.3608C11.8073 10.1942 13.261 9.61084 15.0017 9.61084C15.9832 9.61084 16.9091 9.81917 17.7795 10.2358C18.6499 10.6525 19.3906 11.222 20.0017 11.9442C20.6128 11.222 21.3536 10.6525 22.224 10.2358C23.0943 9.81917 24.0203 9.61084 25.0017 9.61084C26.7425 9.61084 28.1962 10.1942 29.3628 11.3608C30.5295 12.5275 31.1128 13.9812 31.1128 15.722C31.1128 17.8516 30.3258 19.8053 28.7517 21.5831C27.1777 23.3608 25.3906 25.1479 23.3906 26.9442L21.5017 28.6664C21.298 28.8701 21.0619 29.0182 20.7934 29.1108C20.5249 29.2034 20.261 29.2497 20.0017 29.2497ZM18.9462 14.1664C18.4091 13.4071 17.8351 12.8284 17.224 12.4303C16.6128 12.0321 15.8721 11.8331 15.0017 11.8331C13.8906 11.8331 12.9647 12.2034 12.224 12.9442C11.4832 13.6849 11.1128 14.6108 11.1128 15.722C11.1128 16.6849 11.4554 17.7081 12.1406 18.7914C12.8258 19.8747 13.6453 20.9257 14.599 21.9442C15.5527 22.9627 16.5341 23.9164 17.5434 24.8053C18.5527 25.6942 19.3721 26.4257 20.0017 26.9997C20.6314 26.4257 21.4508 25.6942 22.4601 24.8053C23.4693 23.9164 24.4508 22.9627 25.4045 21.9442C26.3582 20.9257 27.1777 19.8747 27.8628 18.7914C28.548 17.7081 28.8906 16.6849 28.8906 15.722C28.8906 14.6108 28.5203 13.6849 27.7795 12.9442C27.0388 12.2034 26.1128 11.8331 25.0017 11.8331C24.1314 11.8331 23.3906 12.0321 22.7795 12.4303C22.1684 12.8284 21.5943 13.4071 21.0573 14.1664C20.9277 14.3516 20.7703 14.4905 20.5851 14.5831C20.3999 14.6757 20.2054 14.722 20.0017 14.722C19.798 14.722 19.6036 14.6757 19.4184 14.5831C19.2332 14.4905 19.0758 14.3516 18.9462 14.1664Z" fill="#D9D9D9"/>
</g>
</g>
</g>
</svg>
