<svg width="40" height="40" viewBox="0 0 40 40" fill="none" xmlns="http://www.w3.org/2000/svg">
<g id="sell">
<mask id="mask0_7200_784" style="mask-type:alpha" maskUnits="userSpaceOnUse" x="0" y="0" width="40" height="40">
<rect id="Bounding box" width="40" height="40" fill="#D9D9D9"/>
</mask>
<g mask="url(#mask0_7200_784)">
<path id="sell_2" d="M23.7507 35.6668C23.1118 36.3057 22.3201 36.6252 21.3757 36.6252C20.4312 36.6252 19.6395 36.3057 19.0007 35.6668L4.33398 21.0002C4.02843 20.6946 3.78537 20.3335 3.60482 19.9168C3.42426 19.5002 3.33398 19.0557 3.33398 18.5835V6.66683C3.33398 5.75016 3.66037 4.96544 4.31315 4.31266C4.96593 3.65989 5.75065 3.3335 6.66732 3.3335H18.584C19.0562 3.3335 19.5007 3.42377 19.9173 3.60433C20.334 3.78489 20.6951 4.02794 21.0007 4.3335L35.6673 19.0418C36.3062 19.6807 36.6257 20.4654 36.6257 21.396C36.6257 22.3266 36.3062 23.1113 35.6673 23.7502L23.7507 35.6668ZM21.3757 33.3335L33.2923 21.4168L18.584 6.66683H6.66732V18.5835L21.3757 33.3335ZM10.834 13.3335C11.5284 13.3335 12.1187 13.0904 12.6048 12.6043C13.0909 12.1182 13.334 11.5279 13.334 10.8335C13.334 10.1391 13.0909 9.54877 12.6048 9.06266C12.1187 8.57655 11.5284 8.3335 10.834 8.3335C10.1395 8.3335 9.54926 8.57655 9.06315 9.06266C8.57704 9.54877 8.33398 10.1391 8.33398 10.8335C8.33398 11.5279 8.57704 12.1182 9.06315 12.6043C9.54926 13.0904 10.1395 13.3335 10.834 13.3335Z" fill="white"/>
</g>
</g>
</svg>
