<svg width="40" height="40" viewBox="0 0 40 40" fill="none" xmlns="http://www.w3.org/2000/svg">
<g id="sell">
<mask id="mask0_7200_780" style="mask-type:alpha" maskUnits="userSpaceOnUse" x="0" y="0" width="40" height="40">
<rect id="Bounding box" x="40" y="40" width="40" height="40" transform="rotate(180 40 40)" fill="#D9D9D9"/>
</mask>
<g mask="url(#mask0_7200_780)">
<path id="sell_2" d="M16.2493 4.33317C16.8882 3.69428 17.6799 3.37484 18.6243 3.37484C19.5688 3.37484 20.3605 3.69428 20.9993 4.33317L35.666 18.9998C35.9716 19.3054 36.2146 19.6665 36.3952 20.0832C36.5757 20.4998 36.666 20.9443 36.666 21.4165V33.3332C36.666 34.2498 36.3396 35.0346 35.6868 35.6873C35.0341 36.3401 34.2493 36.6665 33.3327 36.6665H21.416C20.9438 36.6665 20.4993 36.5762 20.0827 36.3957C19.666 36.2151 19.3049 35.9721 18.9993 35.6665L4.33268 20.9582C3.69379 20.3193 3.37435 19.5346 3.37435 18.604C3.37435 17.6734 3.69379 16.8887 4.33268 16.2498L16.2493 4.33317ZM18.6243 6.6665L6.70768 18.5832L21.416 33.3332H33.3327V21.4165L18.6243 6.6665ZM29.166 26.6665C28.4716 26.6665 27.8813 26.9096 27.3952 27.3957C26.9091 27.8818 26.666 28.4721 26.666 29.1665C26.666 29.8609 26.9091 30.4512 27.3952 30.9373C27.8813 31.4234 28.4716 31.6665 29.166 31.6665C29.8605 31.6665 30.4507 31.4234 30.9368 30.9373C31.423 30.4512 31.666 29.8609 31.666 29.1665C31.666 28.4721 31.423 27.8818 30.9368 27.3957C30.4507 26.9096 29.8605 26.6665 29.166 26.6665Z" fill="white"/>
</g>
</g>
</svg>
